PathFileType	4	(X/Y/Z)	/Users/itak/Documents/Research/Walk-IL/dataset/trc/00146_00007.trc
DataRate	CameraRate	NumFrames	NumMarkers	Units	OrigDataRate	OrigDataStartFrame	OrigNumFrames
100.000000	100.000000	4	53	mm	100.000000	343	550
Frame#	Time	RPSI			LPSI			L3			STRN			T10			C7			CLAV			RBAK			LBAK			LSHO			LUPA			LAEL			LAOL			LWTS			LWPS			LFRA			LIFD			LHPS			LHTS			RSHO			RUPA			RAEL			RAOL			RWTS			RWPS			RFRA			RIFD			RHTS			RHPS			RBHD			LFHD			RFHD			LBHD			LHIP			RHIP			RASI			LASI			LKNE			LTHI			LANK			LTIP			LTOE			LMT1			LMT5			LHEE			RKNE			RTHI			RANK			RTIP			RTOE			RMT1			RMT5			RHEE			
		X1	Y1	Z1	X2	Y2	Z2	X3	Y3	Z3	X4	Y4	Z4	X5	Y5	Z5	X6	Y6	Z6	X7	Y7	Z7	X8	Y8	Z8	X9	Y9	Z9	X10	Y10	Z10	X11	Y11	Z11	X12	Y12	Z12	X13	Y13	Z13	X14	Y14	Z14	X15	Y15	Z15	X16	Y16	Z16	X17	Y17	Z17	X18	Y18	Z18	X19	Y19	Z19	X20	Y20	Z20	X21	Y21	Z21	X22	Y22	Z22	X23	Y23	Z23	X24	Y24	Z24	X25	Y25	Z25	X26	Y26	Z26	X27	Y27	Z27	X28	Y28	Z28	X29	Y29	Z29	X30	Y30	Z30	X31	Y31	Z31	X32	Y32	Z32	X33	Y33	Z33	X34	Y34	Z34	X35	Y35	Z35	X36	Y36	Z36	X37	Y37	Z37	X38	Y38	Z38	X39	Y39	Z39	X40	Y40	Z40	X41	Y41	Z41	X42	Y42	Z42	X43	Y43	Z43	X44	Y44	Z44	X45	Y45	Z45	X46	Y46	Z46	X47	Y47	Z47	X48	Y48	Z48	X49	Y49	Z49	X50	Y50	Z50	X51	Y51	Z51	X52	Y52	Z52	X53	Y53	Z53	

344	3.43	586.706298828125	1106.68115234375	677.8226928710938	473.3924255371094	1117.965209960938	606.8779296875	522.5353393554688	1149.862182617188	647.4300537109375	637.3343505859375	1355.1015625	466.8888549804688	503.8079223632812	1300.2197265625	682.2427368164062	503.4981689453125	1593.411743164062	646.65771484375	610.1446533203125	1488.42138671875	496.6865844726562	552.5722045898438	1409.155151367188	738.9695434570312	412.83447265625	1570.760620117188	596.8182983398438	403.5957946777344	1555.818725585938	485.9864501953125	338.0636291503906	1421.53857421875	462.5133361816406	332.3998107910156	1204.49853515625	423.2510375976562	351.8791809082031	1185.21484375	507.8135070800781	420.4002685546875	953.8335571289062	333.985107421875	364.2283325195312	922.376708984375	396.1537780761719	338.8982849121094	1090.002319335938	398.6127624511719	448.5357666015625	760.5643310546875	318.4200744628906	377.3159790039062	849.864990234375	365.3322143554688	419.4970092773438	866.3994140625	310.6073608398438	687.19921875	1578.113403320312	695.5758666992188	731.9415283203125	1505.197875976562	744.0382690429688	743.1466064453125	1211.68408203125	765.9940185546875	656.2636108398438	1210.08984375	718.4745483398438	798.46435546875	958.1126098632812	651.5941772460938	785.6965942382812	948.562255859375	732.8521118164062	766.781982421875	1137.835083007812	757.4552612304688	790.557373046875	762.0738525390625	636.9776000976562	813.3734130859375	848.4080810546875	638.2095336914062	803.1525268554688	846.1155395507812	711.0477905273438	596.19140625	1762.15087890625	654.3807373046875	493.4362182617188	1834.73779296875	473.0538940429688	616.8558349609375	1859.673217773438	505.6501159667969	466.3855285644531	1739.2783203125	627.828369140625	426.4022521972656	1038.115478515625	464.6055297851562	750.7910766601562	1010.723266601562	619.8922729492188	748.9017944335938	1092.219604492188	531.2743530273438	517.282470703125	1101.272827148438	399.2073059082031	515.65625	532.3473510742188	459.2643432617188	463.3661499023438	675.1648559570312	463.7132873535156	541.6768188476562	34.18289566040039	554.494873046875	483.339111328125	278.6904907226562	529.1965942382812	700.3452758789062	36.61320495605469	377.0162353515625	691.4537353515625	40.77727890014648	463.2659301757812	579.5200805664062	37.8366813659668	433.2431945800781	566.3572998046875	35.27659606933594	644.52734375	775.8330688476562	532.9116821289062	496.0869445800781	773.8274536132812	807.3319702148438	554.3990478515625	621.83349609375	152.6176452636719	836.4983520507812	751.7276000976562	424.597900390625	580.6616821289062	699.9061279296875	45.43828201293945	652.2850341796875	632.3959350585938	57.39933013916016	670.18896484375	706.9974365234375	82.28752899169922	764.006103515625	553.8749389648438	181.6240997314453	844.7761840820312	
345	3.44	591.31005859375	1107.166259765625	672.0772094726562	476.8770141601562	1118.125122070312	602.5447387695312	526.434326171875	1149.9384765625	642.4950561523438	639.58349609375	1355.512451171875	460.57080078125	507.1979675292969	1300.662841796875	677.2236328125	507.1607055664062	1593.786987304688	641.1312866210938	613.0521850585938	1488.916381835938	490.6533203125	556.3717651367188	1409.380126953125	733.142578125	416.1881713867188	1571.370849609375	591.4602661132812	406.7981872558594	1556.733642578125	480.5959777832031	341.4849853515625	1422.621826171875	456.3064575195312	336.8281860351562	1205.925048828125	414.3322143554688	356.5374450683594	1185.769165039062	498.7564392089844	426.0667419433594	956.8075561523438	321.9014282226562	370.0866394042969	924.302734375	383.7856750488281	343.8965759277344	1091.748046875	388.2752685546875	455.2872314453125	763.8681640625	304.1087646484375	383.5955505371094	852.2128295898438	352.1438598632812	425.6670532226562	869.6324462890625	297.49267578125	691.0610961914062	1578.126098632812	689.2261962890625	735.9058837890625	1505.305297851562	737.6130981445312	746.5422973632812	1212.024047851562	760.7621459960938	659.4254150390625	1210.496215820312	713.8230590820312	799.7525634765625	957.2188720703125	647.8748779296875	787.7403564453125	948.4747314453125	729.369140625	769.7880249023438	1138.040771484375	752.6045532226562	789.7673950195312	761.0440673828125	635.1124877929688	813.5449829101562	847.172119140625	635.2735595703125	804.10205078125	845.6277465820312	708.254638671875	600.4729614257812	1762.525024414062	648.4175415039062	496.8783874511719	1835.101806640625	467.50927734375	620.5341796875	1859.8740234375	499.4487609863281	470.5027770996094	1739.827758789062	622.5150146484375	428.689208984375	1037.576049804688	461.2923889160156	754.9876098632812	1011.673706054688	611.7577514648438	751.4302368164062	1093.032836914062	523.3269653320312	518.066162109375	1101.431762695312	394.0369262695312	516.8106079101562	532.1126708984375	456.8425903320312	464.8912658691406	675.0877685546875	461.0546875	541.8382568359375	34.34256744384766	554.545654296875	484.2012939453125	278.8781433105469	528.3389892578125	700.3871459960938	36.34753036499023	376.8025512695312	691.5367431640625	40.69815444946289	463.1832885742188	579.5337524414062	37.76761627197266	433.2860107421875	566.8389282226562	35.23239517211914	644.8240966796875	780.4248046875	535.7068481445312	481.6833190917969	778.5100708007812	809.2178955078125	543.861572265625	637.2006225585938	145.5889739990234	815.3175659179688	758.893310546875	425.6027221679688	564.6634521484375	715.83349609375	45.87351226806641	626.855712890625	648.3663940429688	55.82746887207031	645.9423828125	723.3319091796875	80.07257843017578	739.4772338867188	568.5379638671875	172.4658660888672	825.5385131835938	
346	3.45	595.9176635742188	1107.649536132812	666.3106689453125	480.3095397949219	1118.308227539062	598.2349853515625	530.34521484375	1149.946655273438	637.5180053710938	641.7581176757812	1355.882568359375	454.2667541503906	510.6822204589844	1301.050048828125	672.1507568359375	510.8051452636719	1594.116577148438	635.6416625976562	615.8973388671875	1489.375244140625	484.6299743652344	560.1719360351562	1409.55859375	727.3306274414062	419.5160217285156	1571.93701171875	586.1830444335938	409.9017639160156	1557.5712890625	475.3008728027344	344.7918395996094	1423.67333984375	450.2601318359375	341.1173706054688	1207.345947265625	405.6970825195312	361.1021423339844	1186.330078125	489.9362487792969	431.8103942871094	959.99560546875	309.9353942871094	376.00341796875	926.337158203125	371.4456481933594	348.8222351074219	1093.522094726562	378.1741333007812	462.307861328125	767.497802734375	289.662841796875	390.0557861328125	854.716552734375	338.9251403808594	432.0078125	873.1463623046875	284.376953125	694.9114990234375	1578.099365234375	682.8560180664062	739.8616943359375	1505.371215820312	731.1788330078125	749.9400024414062	1212.328369140625	755.5687255859375	662.5833740234375	1210.854858398438	709.2299194335938	801.1978149414062	956.4417114257812	644.0084228515625	789.9280395507812	948.3941650390625	725.7085571289062	772.816162109375	1138.210083007812	747.7598876953125	789.4085693359375	760.1828002929688	632.8856811523438	814.0352172851562	846.117919921875	632.0883178710938	805.3142700195312	845.2145385742188	705.1893310546875	604.7363891601562	1762.832641601562	642.4674072265625	500.2967529296875	1835.43603515625	462.0162353515625	624.1866455078125	1860.03076171875	493.2922058105469	474.59619140625	1740.323974609375	617.23388671875	430.754150390625	1036.907470703125	458.1498718261719	759.1347045898438	1012.607666015625	603.6283569335938	753.9556274414062	1093.8134765625	515.3880004882812	518.9520874023438	1101.58056640625	388.88720703125	518.0107421875	531.8724365234375	454.3949890136719	466.4305419921875	674.99560546875	458.3934020996094	542.0142211914062	34.52602386474609	554.5890502929688	485.0830383300781	279.0552673339844	527.4588012695312	700.4261474609375	36.10932540893555	376.6089172363281	691.6207885742188	40.62770080566406	463.1053466796875	579.5348510742188	37.70405197143555	433.3350219726562	567.2457275390625	35.24745559692383	645.0421752929688	784.7816162109375	538.4942626953125	467.5270385742188	783.0775756835938	811.0828247070312	533.4169311523438	652.4724731445312	138.2787628173828	793.3906860351562	765.8908081054688	426.5501403808594	548.7379150390625	731.4505004882812	46.45296859741211	600.7618408203125	664.0869750976562	54.34757614135742	620.9192504882812	739.3627319335938	77.72161865234375	714.2471313476562	583.1677856445312	162.9686737060547	805.4727172851562	
347	3.46	600.5128173828125	1108.123291015625	660.526611328125	483.7206115722656	1118.525512695312	593.9249877929688	534.2811279296875	1149.88916015625	632.4749145507812	643.8712768554688	1356.199951171875	447.9765014648438	514.247802734375	1301.374755859375	667.004638671875	514.435546875	1594.3935546875	630.187744140625	618.6860961914062	1489.783569335938	478.61669921875	563.9747314453125	1409.67822265625	721.5252075195312	422.8255004882812	1572.446899414062	580.999267578125	412.9060363769531	1558.304809570312	470.1248779296875	347.9886474609375	1424.668090820312	444.3734130859375	345.2675170898438	1208.73046875	397.3409423828125	365.5496826171875	1186.862670898438	481.3531188964844	437.6155700683594	963.3746948242188	298.1015625	381.9892272949219	928.4546508789062	359.1625671386719	353.6725463867188	1095.301635742188	368.3096313476562	469.5632629394531	771.4376220703125	275.1004638671875	396.6923828125	857.3607177734375	325.6997985839844	438.4974060058594	876.9247436523438	271.2752685546875	698.7548828125	1578.02880859375	676.4589233398438	743.8072509765625	1505.386352539062	724.7353515625	753.322265625	1212.584838867188	750.4028930664062	665.7285766601562	1211.16064453125	704.6574096679688	802.8106079101562	955.7631225585938	639.9948120117188	792.2351684570312	948.3038330078125	721.8660278320312	775.8543701171875	1138.331665039062	742.9118041992188	789.5072021484375	759.4612426757812	630.2870483398438	814.85791015625	845.22265625	628.6568603515625	806.7760009765625	844.854736328125	701.8533935546875	608.982177734375	1763.065063476562	636.5252685546875	503.6954956054688	1835.73095703125	456.5711059570312	627.8154907226562	1860.136840820312	487.1797485351562	478.6671142578125	1740.755737304688	611.9776611328125	432.6190795898438	1036.201538085938	455.0248107910156	763.2208862304688	1013.504333496094	595.5175170898438	756.491943359375	1094.542114257812	507.4692687988281	519.9837646484375	1101.708374023438	383.7822875976562	519.2595825195312	531.6273803710938	451.9306945800781	467.9951171875	674.88525390625	455.7251892089844	542.19873046875	34.72568511962891	554.625	485.9787292480469	279.2215576171875	526.548828125	700.4652099609375	35.90272521972656	376.4381103515625	691.7042846679688	40.56808471679688	463.0322570800781	579.5242919921875	37.65410232543945	433.3825073242188	567.5390014648438	35.33316421508789	645.1541137695312	788.9257202148438	541.2434692382812	453.6517944335938	787.5380859375	812.9014892578125	523.0908813476562	667.585693359375	130.7762145996094	770.75	772.7260131835938	427.4242248535156	532.9002685546875	746.6685180664062	47.15116500854492	574.1354370117188	679.443115234375	52.91890335083008	595.267578125	755.0490112304688	75.29628753662109	688.4271240234375	597.7136840820312	153.2561950683594	784.5823974609375	
